<svg xmlns="http://www.w3.org/2000/svg" xmlns:xlink="http://www.w3.org/1999/xlink" width="341" zoomAndPan="magnify" viewBox="0 0 255.75 50.999998" height="68" preserveAspectRatio="xMidYMid meet" version="1.0"><defs><g/><clipPath id="5f45fd64a7"><path d="M 0 0.0234375 L 255.371094 0.0234375 L 255.371094 50.902344 L 0 50.902344 Z M 0 0.0234375 " clip-rule="nonzero"/></clipPath><clipPath id="68a3993d3b"><path d="M 25.4375 0.0234375 L 229.800781 0.0234375 C 236.546875 0.0234375 243.015625 2.703125 247.785156 7.476562 C 252.558594 12.246094 255.238281 18.714844 255.238281 25.460938 C 255.238281 32.210938 252.558594 38.679688 247.785156 43.449219 C 243.015625 48.21875 236.546875 50.902344 229.800781 50.902344 L 25.4375 50.902344 C 18.691406 50.902344 12.222656 48.21875 7.449219 43.449219 C 2.679688 38.679688 0 32.210938 0 25.460938 C 0 18.714844 2.679688 12.246094 7.449219 7.476562 C 12.222656 2.703125 18.691406 0.0234375 25.4375 0.0234375 Z M 25.4375 0.0234375 " clip-rule="nonzero"/></clipPath><clipPath id="9c8a9e9884"><path d="M 0 0.0234375 L 255.351562 0.0234375 L 255.351562 50.902344 L 0 50.902344 Z M 0 0.0234375 " clip-rule="nonzero"/></clipPath><clipPath id="22aa887599"><path d="M 25.4375 0.0234375 L 229.800781 0.0234375 C 236.546875 0.0234375 243.015625 2.703125 247.785156 7.476562 C 252.558594 12.246094 255.238281 18.714844 255.238281 25.460938 C 255.238281 32.210938 252.558594 38.679688 247.785156 43.449219 C 243.015625 48.21875 236.546875 50.902344 229.800781 50.902344 L 25.4375 50.902344 C 18.691406 50.902344 12.222656 48.21875 7.449219 43.449219 C 2.679688 38.679688 0 32.210938 0 25.460938 C 0 18.714844 2.679688 12.246094 7.449219 7.476562 C 12.222656 2.703125 18.691406 0.0234375 25.4375 0.0234375 Z M 25.4375 0.0234375 " clip-rule="nonzero"/></clipPath><clipPath id="4e34a11dfa"><rect x="0" width="256" y="0" height="51"/></clipPath><clipPath id="cf807eda7b"><path d="M 208.460938 21 L 213 21 L 213 30 L 208.460938 30 Z M 208.460938 21 " clip-rule="nonzero"/></clipPath><clipPath id="f2d0758e78"><path d="M 223 14.734375 L 238.429688 14.734375 L 238.429688 36.460938 L 223 36.460938 Z M 223 14.734375 " clip-rule="nonzero"/></clipPath><clipPath id="fd0cfc38c3"><rect x="0" width="166" y="0" height="24"/></clipPath></defs><g clip-path="url(#5f45fd64a7)"><g clip-path="url(#68a3993d3b)"><g transform="matrix(1, 0, 0, 1, 0, -0.000000000000005523)"><g clip-path="url(#4e34a11dfa)"><g clip-path="url(#9c8a9e9884)"><g clip-path="url(#22aa887599)"><path fill="#5e6b68" d="M 0 0.0234375 L 255.175781 0.0234375 L 255.175781 50.902344 L 0 50.902344 Z M 0 0.0234375 " fill-opacity="1" fill-rule="nonzero"/></g></g></g></g></g></g><g clip-path="url(#cf807eda7b)"><path fill="#ffffff" d="M 208.460938 25.457031 C 208.460938 27.664062 210.191406 29.460938 212.367188 29.574219 L 212.367188 21.339844 C 210.191406 21.457031 208.460938 23.25 208.460938 25.457031 Z M 208.460938 25.457031 " fill-opacity="1" fill-rule="nonzero"/></g><path fill="#ffffff" d="M 223.429688 29.585938 L 223.429688 21.328125 L 212.589844 21.328125 C 212.515625 21.328125 212.441406 21.335938 212.367188 21.339844 L 212.367188 29.574219 C 212.441406 29.578125 212.515625 29.585938 212.589844 29.585938 Z M 223.429688 29.585938 " fill-opacity="1" fill-rule="nonzero"/><g clip-path="url(#f2d0758e78)"><path fill="#ffffff" d="M 223.4375 29.585938 L 223.4375 34.601562 C 223.4375 36.121094 224.433594 36.621094 225.652344 35.710938 L 237.144531 27.113281 C 238.359375 26.203125 238.359375 24.710938 237.144531 23.800781 L 225.652344 15.207031 C 224.433594 14.296875 223.4375 14.792969 223.4375 16.3125 L 223.4375 21.328125 L 223.429688 21.328125 L 223.429688 29.585938 Z M 223.4375 29.585938 " fill-opacity="1" fill-rule="nonzero"/></g><g transform="matrix(1, 0, 0, 1, 33, 13)"><g clip-path="url(#fd0cfc38c3)"><g fill="#ffffff" fill-opacity="1"><g transform="translate(0.676067, 17.971878)"><g><path d="M 5.671875 -0.84375 C 6.523438 -1 7.359375 -1.394531 8.171875 -2.03125 C 8.992188 -2.664062 9.398438 -3.195312 9.390625 -3.625 C 9.378906 -4.050781 9.132812 -4.363281 8.65625 -4.5625 C 7.78125 -4.90625 6.722656 -5.035156 5.484375 -4.953125 C 4.929688 -4.898438 4.625 -4.753906 4.5625 -4.515625 C 4.5 -4.273438 4.582031 -3.515625 4.8125 -2.234375 L 5.03125 -0.703125 Z M 4.15625 -7.546875 C 4.382812 -7.546875 4.890625 -7.769531 5.671875 -8.21875 C 6.453125 -8.675781 7.03125 -9.070312 7.40625 -9.40625 C 7.78125 -9.75 7.925781 -10.03125 7.84375 -10.25 C 7.738281 -10.46875 7.304688 -10.738281 6.546875 -11.0625 C 5.796875 -11.394531 4.664062 -11.625 3.15625 -11.75 C 3.238281 -11.414062 3.332031 -10.929688 3.4375 -10.296875 C 3.550781 -9.671875 3.664062 -9.054688 3.78125 -8.453125 C 3.90625 -7.847656 4.03125 -7.546875 4.15625 -7.546875 Z M 9.53125 -6.90625 C 10.257812 -6.664062 10.847656 -6.242188 11.296875 -5.640625 C 11.742188 -5.046875 11.972656 -4.394531 11.984375 -3.6875 C 11.992188 -2.976562 11.613281 -2.15625 10.84375 -1.21875 C 10.070312 -0.28125 9.179688 0.425781 8.171875 0.90625 C 7.484375 1.25 6.671875 1.503906 5.734375 1.671875 C 4.804688 1.835938 4.195312 1.84375 3.90625 1.6875 C 3.488281 1.46875 3.132812 0.910156 2.84375 0.015625 C 2.570312 -0.867188 2.253906 -2.492188 1.890625 -4.859375 C 1.535156 -7.222656 1.25 -8.828125 1.03125 -9.671875 C 0.820312 -10.515625 0.703125 -11.34375 0.671875 -12.15625 C 0.640625 -12.96875 0.722656 -13.484375 0.921875 -13.703125 C 1.117188 -13.929688 1.367188 -14.0625 1.671875 -14.09375 C 1.972656 -14.125 2.632812 -14.109375 3.65625 -14.046875 C 6.25 -13.941406 8.125 -13.363281 9.28125 -12.3125 C 10.925781 -10.894531 11.019531 -9.472656 9.5625 -8.046875 L 8.703125 -7.1875 Z M 9.53125 -6.90625 "/></g></g></g><g fill="#ffffff" fill-opacity="1"><g transform="translate(13.350367, 17.971878)"><g><path d="M 6.59375 -1.671875 C 6.59375 -1.503906 6.351562 -1.269531 5.875 -0.96875 C 5.394531 -0.664062 5.023438 -0.515625 4.765625 -0.515625 C 4.054688 -0.515625 3.367188 -0.875 2.703125 -1.59375 C 2.046875 -2.320312 1.535156 -3.265625 1.171875 -4.421875 C 0.796875 -5.585938 0.640625 -6.769531 0.703125 -7.96875 C 0.734375 -8.59375 0.785156 -9 0.859375 -9.1875 C 0.929688 -9.382812 1.128906 -9.570312 1.453125 -9.75 C 1.773438 -9.9375 2.070312 -9.953125 2.34375 -9.796875 C 2.613281 -9.648438 2.800781 -9.425781 2.90625 -9.125 C 3.019531 -8.820312 3.132812 -8.195312 3.25 -7.25 C 3.375 -6.300781 3.570312 -5.421875 3.84375 -4.609375 C 4.113281 -3.796875 4.351562 -3.390625 4.5625 -3.390625 C 4.800781 -3.390625 5.160156 -4.070312 5.640625 -5.4375 C 6.128906 -6.8125 6.375 -7.832031 6.375 -8.5 C 6.375 -9.519531 6.691406 -10.144531 7.328125 -10.375 C 8.003906 -10.644531 8.503906 -10.476562 8.828125 -9.875 C 8.992188 -9.5625 9.109375 -8.4375 9.171875 -6.5 C 9.234375 -4.570312 9.28125 -3.257812 9.3125 -2.5625 C 9.34375 -1.875 9.300781 -1.363281 9.1875 -1.03125 C 9.082031 -0.707031 8.953125 -0.503906 8.796875 -0.421875 C 8.648438 -0.347656 8.425781 -0.328125 8.125 -0.359375 C 7.832031 -0.390625 7.601562 -0.46875 7.4375 -0.59375 C 7.28125 -0.707031 7.113281 -0.925781 6.9375 -1.25 C 6.769531 -1.5625 6.671875 -1.71875 6.640625 -1.71875 C 6.609375 -1.71875 6.59375 -1.703125 6.59375 -1.671875 Z M 6.59375 -1.671875 "/></g></g></g><g fill="#ffffff" fill-opacity="1"><g transform="translate(23.336174, 17.971878)"><g><path d="M 10.25 0.296875 C 10.25 1.066406 9.832031 1.453125 9 1.453125 C 8.738281 1.390625 8.304688 1.078125 7.703125 0.515625 C 7.097656 -0.0351562 6.320312 -0.789062 5.375 -1.75 C 4.425781 -2.71875 3.9375 -3.226562 3.90625 -3.28125 L 3.90625 -2.078125 C 3.90625 -1.160156 3.675781 -0.535156 3.21875 -0.203125 C 2.769531 0.128906 2.289062 0.015625 1.78125 -0.546875 C 1.601562 -0.722656 1.484375 -1.113281 1.421875 -1.71875 C 1.359375 -2.320312 1.289062 -4.175781 1.21875 -7.28125 C 1.125 -10.375 1 -12.390625 0.84375 -13.328125 C 0.6875 -14.265625 0.640625 -14.882812 0.703125 -15.1875 C 0.765625 -15.488281 0.941406 -15.707031 1.234375 -15.84375 C 1.535156 -15.976562 1.828125 -16.015625 2.109375 -15.953125 C 2.398438 -15.890625 2.632812 -15.753906 2.8125 -15.546875 C 3 -15.335938 3.179688 -14.644531 3.359375 -13.46875 C 3.578125 -12.289062 3.6875 -11.25 3.6875 -10.34375 L 3.6875 -8.546875 C 6.132812 -11.128906 7.550781 -12.550781 7.9375 -12.8125 C 8.050781 -12.8125 8.273438 -12.71875 8.609375 -12.53125 C 8.941406 -12.351562 9.144531 -12.195312 9.21875 -12.0625 C 9.445312 -11.726562 9.425781 -11.335938 9.15625 -10.890625 C 8.882812 -10.441406 8.195312 -9.644531 7.09375 -8.5 L 4.8125 -6.09375 L 7.546875 -3.28125 C 8.691406 -2.0625 9.425781 -1.238281 9.75 -0.8125 C 10.082031 -0.394531 10.25 -0.0234375 10.25 0.296875 Z M 10.25 0.296875 "/></g></g></g><g fill="#ffffff" fill-opacity="1"><g transform="translate(34.270868, 17.971878)"><g><path d="M 4.90625 -2.71875 C 5.113281 -2.71875 5.421875 -3.03125 5.828125 -3.65625 C 6.234375 -4.289062 6.554688 -4.96875 6.796875 -5.6875 C 7.035156 -6.414062 7.164062 -6.914062 7.1875 -7.1875 C 7.1875 -7.457031 7.066406 -7.695312 6.828125 -7.90625 C 6.148438 -8.238281 5.539062 -8.269531 5 -8 C 4.457031 -7.726562 4.019531 -7.257812 3.6875 -6.59375 C 3.351562 -5.9375 3.238281 -5.28125 3.34375 -4.625 C 3.414062 -4.25 3.632812 -3.835938 4 -3.390625 C 4.363281 -2.941406 4.664062 -2.71875 4.90625 -2.71875 Z M 10.90625 -4.796875 C 11.363281 -2.617188 11.59375 -1.304688 11.59375 -0.859375 C 11.59375 -0.410156 11.492188 -0.0976562 11.296875 0.078125 C 11.097656 0.265625 10.78125 0.359375 10.34375 0.359375 C 9.90625 0.359375 9.601562 0.238281 9.4375 0 C 9.28125 -0.238281 9.109375 -0.820312 8.921875 -1.75 C 8.742188 -2.6875 8.617188 -3.15625 8.546875 -3.15625 C 8.492188 -3.15625 8.25 -2.828125 7.8125 -2.171875 C 7.050781 -0.929688 6.050781 -0.3125 4.8125 -0.3125 C 3.570312 -0.3125 2.539062 -0.945312 1.71875 -2.21875 C 1.101562 -3.175781 0.765625 -4.046875 0.703125 -4.828125 C 0.640625 -5.617188 0.800781 -6.421875 1.1875 -7.234375 C 1.582031 -8.046875 2.09375 -8.757812 2.71875 -9.375 C 3.332031 -10.007812 3.878906 -10.398438 4.359375 -10.546875 C 5.640625 -10.984375 6.972656 -10.78125 8.359375 -9.9375 C 9.171875 -9.445312 9.679688 -9.003906 9.890625 -8.609375 C 10.109375 -8.234375 10.445312 -6.960938 10.90625 -4.796875 Z M 10.90625 -4.796875 "/></g></g></g><g fill="#ffffff" fill-opacity="1"><g transform="translate(46.538505, 17.971878)"><g/></g></g><g fill="#ffffff" fill-opacity="1"><g transform="translate(54.942856, 17.971878)"><g><path d="M 15.765625 1.671875 C 15.523438 1.671875 15.3125 1.59375 15.125 1.4375 C 14.945312 1.289062 14.660156 0.898438 14.265625 0.265625 C 13.878906 -0.359375 13.175781 -1.65625 12.15625 -3.625 C 11.144531 -5.601562 10.441406 -7.09375 10.046875 -8.09375 C 9.828125 -7.164062 9.191406 -4.472656 8.140625 -0.015625 C 7.890625 1.109375 7.660156 1.847656 7.453125 2.203125 C 7.242188 2.566406 6.9375 2.75 6.53125 2.75 C 5.9375 2.75 5.457031 2.425781 5.09375 1.78125 C 4.738281 1.132812 4.1875 -0.363281 3.4375 -2.71875 C 1.59375 -8.5 0.671875 -11.84375 0.671875 -12.75 C 0.671875 -13.070312 0.789062 -13.347656 1.03125 -13.578125 C 1.28125 -13.804688 1.609375 -13.921875 2.015625 -13.921875 C 2.421875 -13.921875 2.695312 -13.785156 2.84375 -13.515625 C 3 -13.242188 3.300781 -12.179688 3.75 -10.328125 C 4.195312 -8.484375 4.835938 -6.359375 5.671875 -3.953125 C 5.953125 -3.171875 6.117188 -2.8125 6.171875 -2.875 C 6.273438 -3.007812 6.613281 -4.351562 7.1875 -6.90625 C 7.757812 -9.46875 8.132812 -11.035156 8.3125 -11.609375 C 8.488281 -12.179688 8.726562 -12.601562 9.03125 -12.875 C 9.625 -13.445312 10.097656 -13.597656 10.453125 -13.328125 C 10.804688 -13.054688 11.222656 -12.210938 11.703125 -10.796875 C 12.179688 -9.378906 12.890625 -7.742188 13.828125 -5.890625 C 14.765625 -4.046875 15.253906 -3.175781 15.296875 -3.28125 C 15.367188 -3.5 15.519531 -4.675781 15.75 -6.8125 C 15.976562 -8.957031 16.117188 -10.535156 16.171875 -11.546875 C 16.234375 -12.566406 16.300781 -13.234375 16.375 -13.546875 C 16.457031 -13.867188 16.59375 -14.101562 16.78125 -14.25 C 17.070312 -14.445312 17.304688 -14.546875 17.484375 -14.546875 C 17.671875 -14.546875 17.90625 -14.441406 18.1875 -14.234375 C 18.476562 -14.023438 18.632812 -13.789062 18.65625 -13.53125 C 18.6875 -13.28125 18.664062 -12.460938 18.59375 -11.078125 C 18.519531 -9.691406 18.300781 -7.507812 17.9375 -4.53125 C 17.570312 -1.550781 17.332031 0.109375 17.21875 0.453125 C 16.894531 1.265625 16.410156 1.671875 15.765625 1.671875 Z M 15.765625 1.671875 "/></g></g></g><g fill="#ffffff" fill-opacity="1"><g transform="translate(74.304482, 17.971878)"><g><path d="M 4.90625 -2.71875 C 5.113281 -2.71875 5.421875 -3.03125 5.828125 -3.65625 C 6.234375 -4.289062 6.554688 -4.96875 6.796875 -5.6875 C 7.035156 -6.414062 7.164062 -6.914062 7.1875 -7.1875 C 7.1875 -7.457031 7.066406 -7.695312 6.828125 -7.90625 C 6.148438 -8.238281 5.539062 -8.269531 5 -8 C 4.457031 -7.726562 4.019531 -7.257812 3.6875 -6.59375 C 3.351562 -5.9375 3.238281 -5.28125 3.34375 -4.625 C 3.414062 -4.25 3.632812 -3.835938 4 -3.390625 C 4.363281 -2.941406 4.664062 -2.71875 4.90625 -2.71875 Z M 10.90625 -4.796875 C 11.363281 -2.617188 11.59375 -1.304688 11.59375 -0.859375 C 11.59375 -0.410156 11.492188 -0.0976562 11.296875 0.078125 C 11.097656 0.265625 10.78125 0.359375 10.34375 0.359375 C 9.90625 0.359375 9.601562 0.238281 9.4375 0 C 9.28125 -0.238281 9.109375 -0.820312 8.921875 -1.75 C 8.742188 -2.6875 8.617188 -3.15625 8.546875 -3.15625 C 8.492188 -3.15625 8.25 -2.828125 7.8125 -2.171875 C 7.050781 -0.929688 6.050781 -0.3125 4.8125 -0.3125 C 3.570312 -0.3125 2.539062 -0.945312 1.71875 -2.21875 C 1.101562 -3.175781 0.765625 -4.046875 0.703125 -4.828125 C 0.640625 -5.617188 0.800781 -6.421875 1.1875 -7.234375 C 1.582031 -8.046875 2.09375 -8.757812 2.71875 -9.375 C 3.332031 -10.007812 3.878906 -10.398438 4.359375 -10.546875 C 5.640625 -10.984375 6.972656 -10.78125 8.359375 -9.9375 C 9.171875 -9.445312 9.679688 -9.003906 9.890625 -8.609375 C 10.109375 -8.234375 10.445312 -6.960938 10.90625 -4.796875 Z M 10.90625 -4.796875 "/></g></g></g><g fill="#ffffff" fill-opacity="1"><g transform="translate(86.572119, 17.971878)"><g><path d="M 5.375 4.515625 C 4.757812 4.515625 4.421875 4.195312 4.359375 3.5625 C 4.296875 2.9375 4.519531 1.882812 5.03125 0.40625 L 5.53125 -1.125 C 4.925781 -1.90625 4.222656 -2.957031 3.421875 -4.28125 C 2.628906 -5.613281 2.003906 -6.625 1.546875 -7.3125 C 1.097656 -8.007812 0.832031 -8.472656 0.75 -8.703125 C 0.582031 -9.109375 0.6875 -9.488281 1.0625 -9.84375 C 1.4375 -10.207031 1.847656 -10.335938 2.296875 -10.234375 C 2.515625 -10.160156 2.976562 -9.625 3.6875 -8.625 C 4.394531 -7.632812 5.046875 -6.625 5.640625 -5.59375 C 6.242188 -4.570312 6.59375 -4.054688 6.6875 -4.046875 C 6.78125 -4.046875 7.195312 -4.820312 7.9375 -6.375 C 8.65625 -7.925781 9.097656 -8.972656 9.265625 -9.515625 C 9.429688 -10.054688 9.554688 -10.410156 9.640625 -10.578125 C 9.804688 -10.785156 10.128906 -10.875 10.609375 -10.84375 C 11.097656 -10.8125 11.410156 -10.671875 11.546875 -10.421875 C 11.828125 -9.921875 11.847656 -9.304688 11.609375 -8.578125 C 11.367188 -7.859375 10.691406 -6.289062 9.578125 -3.875 C 8.460938 -1.46875 7.71875 0.363281 7.34375 1.625 C 6.96875 2.894531 6.660156 3.691406 6.421875 4.015625 C 6.179688 4.347656 5.832031 4.515625 5.375 4.515625 Z M 5.375 4.515625 "/></g></g></g><g fill="#ffffff" fill-opacity="1"><g transform="translate(99.043094, 17.971878)"><g><path d="M 5.484375 -3.8125 C 5.734375 -4.070312 6.003906 -4.648438 6.296875 -5.546875 C 6.597656 -6.453125 6.78125 -7.109375 6.84375 -7.515625 C 6.90625 -7.929688 6.890625 -8.164062 6.796875 -8.21875 C 6.710938 -8.28125 6.46875 -8.332031 6.0625 -8.375 C 5.03125 -8.46875 4.242188 -7.941406 3.703125 -6.796875 C 3.472656 -6.304688 3.34375 -5.726562 3.3125 -5.0625 C 3.289062 -4.394531 3.382812 -3.941406 3.59375 -3.703125 C 3.800781 -3.460938 4.109375 -3.359375 4.515625 -3.390625 C 4.921875 -3.421875 5.242188 -3.5625 5.484375 -3.8125 Z M 4.265625 -10.703125 C 4.859375 -10.921875 5.425781 -11.03125 5.96875 -11.03125 C 6.507812 -11.03125 7.160156 -10.878906 7.921875 -10.578125 C 8.691406 -10.273438 9.195312 -9.972656 9.4375 -9.671875 C 9.789062 -9.273438 9.984375 -7.03125 10.015625 -2.9375 C 10.015625 -1.519531 9.890625 -0.40625 9.640625 0.40625 C 9.398438 1.21875 9.007812 1.894531 8.46875 2.4375 C 7.925781 2.976562 7.304688 3.382812 6.609375 3.65625 C 5.921875 3.925781 5.304688 4.0625 4.765625 4.0625 C 4.222656 4.0625 3.863281 4.03125 3.6875 3.96875 C 3.5 3.894531 3.332031 3.722656 3.1875 3.453125 C 3.007812 3.179688 2.945312 2.863281 3 2.5 C 3.0625 2.144531 3.21875 1.914062 3.46875 1.8125 C 3.726562 1.707031 4.203125 1.609375 4.890625 1.515625 C 5.585938 1.421875 6.144531 1.160156 6.5625 0.734375 C 6.988281 0.316406 7.28125 -0.300781 7.4375 -1.125 L 7.5625 -2.078125 L 6.734375 -1.53125 C 5.691406 -0.84375 4.628906 -0.617188 3.546875 -0.859375 C 2.460938 -1.097656 1.648438 -1.773438 1.109375 -2.890625 C 0.566406 -4.003906 0.546875 -5.398438 1.046875 -7.078125 C 1.234375 -7.785156 1.671875 -8.515625 2.359375 -9.265625 C 3.054688 -10.015625 3.691406 -10.492188 4.265625 -10.703125 Z M 4.265625 -10.703125 "/></g></g></g><g fill="#ffffff" fill-opacity="1"><g transform="translate(109.729263, 17.971878)"><g><path d="M 3.140625 -9.796875 C 3.210938 -9.710938 3.28125 -9.671875 3.34375 -9.671875 C 3.40625 -9.671875 3.4375 -9.6875 3.4375 -9.71875 C 3.46875 -9.75 3.507812 -9.859375 3.5625 -10.046875 C 3.625 -10.242188 3.878906 -10.523438 4.328125 -10.890625 C 4.785156 -11.253906 5.1875 -11.476562 5.53125 -11.5625 C 6.289062 -11.75 7.179688 -11.734375 8.203125 -11.515625 C 9.222656 -11.304688 9.835938 -11 10.046875 -10.59375 C 10.367188 -10.007812 10.316406 -9.519531 9.890625 -9.125 C 9.472656 -8.738281 8.960938 -8.640625 8.359375 -8.828125 C 7.753906 -9.023438 7.238281 -9.101562 6.8125 -9.0625 C 6.394531 -9.019531 6.109375 -8.914062 5.953125 -8.75 C 5.804688 -8.582031 5.554688 -8.132812 5.203125 -7.40625 C 4.867188 -6.6875 4.660156 -6.140625 4.578125 -5.765625 C 4.503906 -5.390625 4.457031 -4.65625 4.4375 -3.5625 C 4.425781 -2.476562 4.398438 -1.785156 4.359375 -1.484375 C 4.316406 -1.191406 4.203125 -0.976562 4.015625 -0.84375 C 3.691406 -0.613281 3.363281 -0.515625 3.03125 -0.546875 C 2.695312 -0.578125 2.441406 -0.734375 2.265625 -1.015625 C 2.109375 -1.453125 1.9375 -2.453125 1.75 -4.015625 C 1.570312 -5.585938 1.363281 -6.765625 1.125 -7.546875 C 0.882812 -8.328125 0.738281 -8.925781 0.6875 -9.34375 C 0.644531 -9.769531 0.6875 -10.070312 0.8125 -10.25 C 0.9375 -10.4375 1.15625 -10.570312 1.46875 -10.65625 C 1.78125 -10.75 2.007812 -10.765625 2.15625 -10.703125 C 2.3125 -10.648438 2.5 -10.5 2.71875 -10.25 C 2.925781 -10.039062 3.066406 -9.890625 3.140625 -9.796875 Z M 3.140625 -9.796875 "/></g></g></g><g fill="#ffffff" fill-opacity="1"><g transform="translate(120.641363, 17.971878)"><g><path d="M 5.640625 -7.34375 C 5.210938 -7.78125 4.769531 -7.832031 4.3125 -7.5 C 3.863281 -7.164062 3.503906 -6.5 3.234375 -5.5 C 2.960938 -4.507812 3.019531 -3.59375 3.40625 -2.75 C 3.800781 -1.90625 4.320312 -1.566406 4.96875 -1.734375 C 5.375 -1.835938 5.664062 -1.976562 5.84375 -2.15625 C 6.03125 -2.34375 6.195312 -2.707031 6.34375 -3.25 C 6.5 -3.789062 6.5 -4.53125 6.34375 -5.46875 C 6.195312 -6.40625 5.960938 -7.03125 5.640625 -7.34375 Z M 0.703125 -5.015625 C 0.765625 -6.191406 1.066406 -7.257812 1.609375 -8.21875 C 2.148438 -9.1875 2.847656 -9.84375 3.703125 -10.1875 C 4.566406 -10.53125 5.828125 -10.253906 7.484375 -9.359375 C 8.347656 -8.867188 8.898438 -8.457031 9.140625 -8.125 C 9.390625 -7.800781 9.40625 -7.425781 9.1875 -7 C 8.976562 -6.582031 8.890625 -5.769531 8.921875 -4.5625 C 9.015625 -1.695312 8 0.0390625 5.875 0.65625 C 4.28125 1.125 2.910156 0.703125 1.765625 -0.609375 C 1.285156 -1.171875 0.96875 -1.75 0.8125 -2.34375 C 0.675781 -2.945312 0.640625 -3.835938 0.703125 -5.015625 Z M 0.703125 -5.015625 "/></g></g></g><g fill="#ffffff" fill-opacity="1"><g transform="translate(130.672356, 17.971878)"><g><path d="M 6.59375 -1.671875 C 6.59375 -1.503906 6.351562 -1.269531 5.875 -0.96875 C 5.394531 -0.664062 5.023438 -0.515625 4.765625 -0.515625 C 4.054688 -0.515625 3.367188 -0.875 2.703125 -1.59375 C 2.046875 -2.320312 1.535156 -3.265625 1.171875 -4.421875 C 0.796875 -5.585938 0.640625 -6.769531 0.703125 -7.96875 C 0.734375 -8.59375 0.785156 -9 0.859375 -9.1875 C 0.929688 -9.382812 1.128906 -9.570312 1.453125 -9.75 C 1.773438 -9.9375 2.070312 -9.953125 2.34375 -9.796875 C 2.613281 -9.648438 2.800781 -9.425781 2.90625 -9.125 C 3.019531 -8.820312 3.132812 -8.195312 3.25 -7.25 C 3.375 -6.300781 3.570312 -5.421875 3.84375 -4.609375 C 4.113281 -3.796875 4.351562 -3.390625 4.5625 -3.390625 C 4.800781 -3.390625 5.160156 -4.070312 5.640625 -5.4375 C 6.128906 -6.8125 6.375 -7.832031 6.375 -8.5 C 6.375 -9.519531 6.691406 -10.144531 7.328125 -10.375 C 8.003906 -10.644531 8.503906 -10.476562 8.828125 -9.875 C 8.992188 -9.5625 9.109375 -8.4375 9.171875 -6.5 C 9.234375 -4.570312 9.28125 -3.257812 9.3125 -2.5625 C 9.34375 -1.875 9.300781 -1.363281 9.1875 -1.03125 C 9.082031 -0.707031 8.953125 -0.503906 8.796875 -0.421875 C 8.648438 -0.347656 8.425781 -0.328125 8.125 -0.359375 C 7.832031 -0.390625 7.601562 -0.46875 7.4375 -0.59375 C 7.28125 -0.707031 7.113281 -0.925781 6.9375 -1.25 C 6.769531 -1.5625 6.671875 -1.71875 6.640625 -1.71875 C 6.609375 -1.71875 6.59375 -1.703125 6.59375 -1.671875 Z M 6.59375 -1.671875 "/></g></g></g><g fill="#ffffff" fill-opacity="1"><g transform="translate(140.658163, 17.971878)"><g><path d="M 9.28125 -1.40625 C 8.875 -1.40625 8.566406 -1.597656 8.359375 -1.984375 C 8.148438 -2.378906 7.941406 -3.101562 7.734375 -4.15625 C 7.398438 -6.019531 7 -7.085938 6.53125 -7.359375 C 6.425781 -7.421875 6.320312 -7.414062 6.21875 -7.34375 C 5.832031 -7.039062 5.414062 -5.617188 4.96875 -3.078125 C 4.820312 -2.242188 4.597656 -1.613281 4.296875 -1.1875 C 3.992188 -0.757812 3.671875 -0.570312 3.328125 -0.625 C 2.992188 -0.6875 2.800781 -0.71875 2.75 -0.71875 C 2.570312 -0.71875 2.40625 -0.988281 2.25 -1.53125 C 2.101562 -2.070312 1.9375 -3.101562 1.75 -4.625 C 1.570312 -6.144531 1.328125 -7.257812 1.015625 -7.96875 C 0.484375 -9.195312 0.5625 -9.972656 1.25 -10.296875 C 1.96875 -10.679688 2.617188 -10.359375 3.203125 -9.328125 L 3.734375 -8.40625 L 4.421875 -9.15625 C 4.785156 -9.5625 5.222656 -9.851562 5.734375 -10.03125 C 6.242188 -10.207031 6.710938 -10.226562 7.140625 -10.09375 C 7.828125 -9.882812 8.425781 -9.367188 8.9375 -8.546875 C 9.457031 -7.734375 9.851562 -6.628906 10.125 -5.234375 C 10.394531 -3.847656 10.476562 -2.863281 10.375 -2.28125 C 10.25 -1.695312 9.882812 -1.40625 9.28125 -1.40625 Z M 9.28125 -1.40625 "/></g></g></g><g fill="#ffffff" fill-opacity="1"><g transform="translate(151.750995, 17.971878)"><g><path d="M 6.78125 1.828125 C 6.71875 2.023438 6.679688 2.003906 6.671875 1.765625 C 6.640625 1.296875 6.660156 1.066406 6.734375 1.078125 C 6.742188 1.078125 6.765625 1.140625 6.796875 1.265625 C 6.828125 1.390625 6.820312 1.578125 6.78125 1.828125 Z M 5.6875 -7 C 4.957031 -7.363281 4.578125 -7.546875 4.546875 -7.546875 C 4.515625 -7.546875 4.285156 -7.300781 3.859375 -6.8125 C 3.441406 -6.332031 3.25 -5.785156 3.28125 -5.171875 C 3.3125 -4.554688 3.566406 -4.003906 4.046875 -3.515625 C 4.523438 -3.035156 5.015625 -2.707031 5.515625 -2.53125 C 6.015625 -2.375 6.320312 -2.3125 6.4375 -2.34375 C 6.5625 -2.375 6.742188 -2.523438 6.984375 -2.796875 C 7.628906 -3.566406 7.8125 -4.425781 7.53125 -5.375 C 7.40625 -5.738281 7.25 -6.007812 7.0625 -6.1875 C 6.882812 -6.375 6.425781 -6.644531 5.6875 -7 Z M 7.53125 -14.015625 C 7.550781 -14.765625 7.660156 -15.257812 7.859375 -15.5 C 8.066406 -15.738281 8.375 -15.859375 8.78125 -15.859375 C 9.195312 -15.859375 9.5 -15.753906 9.6875 -15.546875 C 9.84375 -15.210938 9.960938 -14.675781 10.046875 -13.9375 C 10.140625 -13.195312 10.226562 -12.382812 10.3125 -11.5 C 10.40625 -10.613281 10.5 -9.816406 10.59375 -9.109375 C 10.695312 -8.398438 10.804688 -6.914062 10.921875 -4.65625 C 11.046875 -2.394531 11.101562 -0.976562 11.09375 -0.40625 C 11.082031 0.164062 11.007812 0.550781 10.875 0.75 C 10.570312 1.1875 10.160156 1.328125 9.640625 1.171875 C 9.128906 1.023438 8.816406 0.679688 8.703125 0.140625 L 8.546875 -0.515625 C 7.703125 0.0546875 6.335938 0.363281 4.453125 0.40625 L 2.921875 -1.109375 C 1.859375 -2.148438 1.175781 -3.101562 0.875 -3.96875 C 0.570312 -4.84375 0.617188 -5.8125 1.015625 -6.875 C 1.460938 -8.195312 2.207031 -9.117188 3.25 -9.640625 C 3.8125 -9.929688 4.226562 -10.242188 4.5 -10.578125 C 4.769531 -10.910156 5.082031 -11.0625 5.4375 -11.03125 C 5.820312 -11 6.085938 -10.921875 6.234375 -10.796875 C 6.390625 -10.679688 6.585938 -10.363281 6.828125 -9.84375 C 7.066406 -9.332031 7.320312 -9.015625 7.59375 -8.890625 C 7.863281 -8.773438 8.015625 -8.78125 8.046875 -8.90625 C 8.078125 -9.082031 7.984375 -9.785156 7.765625 -11.015625 C 7.554688 -12.253906 7.476562 -13.253906 7.53125 -14.015625 Z M 7.53125 -14.015625 "/></g></g></g></g></g></svg>