<svg xmlns="http://www.w3.org/2000/svg" xmlns:xlink="http://www.w3.org/1999/xlink" width="68" zoomAndPan="magnify" viewBox="0 0 50.879997 62.999997" height="84" preserveAspectRatio="xMidYMid meet" version="1.0"><defs><clipPath id="57abaf9747"><path d="M 0 0.0742188 L 50.761719 0.0742188 L 50.761719 62.414062 L 0 62.414062 Z M 0 0.0742188 " clip-rule="nonzero"/></clipPath><clipPath id="5608d8bf4b"><path d="M 8.980469 0.0742188 L 41.84375 0.0742188 C 44.226562 0.0742188 46.511719 1.019531 48.195312 2.703125 C 49.878906 4.386719 50.824219 6.671875 50.824219 9.054688 L 50.824219 53.429688 C 50.824219 55.8125 49.878906 58.09375 48.195312 59.78125 C 46.511719 61.464844 44.226562 62.410156 41.84375 62.410156 L 8.980469 62.410156 C 6.597656 62.410156 4.3125 61.464844 2.628906 59.78125 C 0.945312 58.09375 0 55.8125 0 53.429688 L 0 9.054688 C 0 6.671875 0.945312 4.386719 2.628906 2.703125 C 4.3125 1.019531 6.597656 0.0742188 8.980469 0.0742188 Z M 8.980469 0.0742188 " clip-rule="nonzero"/></clipPath><clipPath id="30a5ed93b4"><path d="M 0 0.0742188 L 50.761719 0.0742188 L 50.761719 62.414062 L 0 62.414062 Z M 0 0.0742188 " clip-rule="nonzero"/></clipPath><clipPath id="7e851136e9"><path d="M 8.980469 0.0742188 L 41.84375 0.0742188 C 44.226562 0.0742188 46.511719 1.019531 48.195312 2.703125 C 49.878906 4.386719 50.824219 6.671875 50.824219 9.054688 L 50.824219 53.429688 C 50.824219 55.8125 49.878906 58.09375 48.195312 59.78125 C 46.511719 61.464844 44.226562 62.410156 41.84375 62.410156 L 8.980469 62.410156 C 6.597656 62.410156 4.3125 61.464844 2.628906 59.78125 C 0.945312 58.09375 0 55.8125 0 53.429688 L 0 9.054688 C 0 6.671875 0.945312 4.386719 2.628906 2.703125 C 4.3125 1.019531 6.597656 0.0742188 8.980469 0.0742188 Z M 8.980469 0.0742188 " clip-rule="nonzero"/></clipPath><clipPath id="734d8d3556"><rect x="0" width="51" y="0" height="63"/></clipPath><clipPath id="c3f34e61d7"><path d="M 12 10.945312 L 42.449219 10.945312 L 42.449219 47 L 12 47 Z M 12 10.945312 " clip-rule="nonzero"/></clipPath><clipPath id="dfbf5884bb"><path d="M 8.027344 15 L 32 15 L 32 51.347656 L 8.027344 51.347656 Z M 8.027344 15 " clip-rule="nonzero"/></clipPath></defs><g clip-path="url(#57abaf9747)"><g clip-path="url(#5608d8bf4b)"><g transform="matrix(1, 0, 0, 1, 0, -0.000000000000001346)"><g clip-path="url(#734d8d3556)"><g clip-path="url(#30a5ed93b4)"><g clip-path="url(#7e851136e9)"><path fill="#5e6b68" d="M 0 0.0742188 L 50.824219 0.0742188 L 50.824219 62.414062 L 0 62.414062 Z M 0 0.0742188 " fill-opacity="1" fill-rule="nonzero"/></g></g></g></g></g></g><g clip-path="url(#c3f34e61d7)"><path fill="#ffffff" d="M 39.152344 10.945312 L 16.332031 10.945312 C 14.417969 10.945312 12.855469 12.507812 12.855469 14.421875 L 12.855469 43.214844 C 12.855469 45.128906 14.417969 46.691406 16.332031 46.691406 L 39.152344 46.691406 C 41.066406 46.691406 42.628906 45.140625 42.628906 43.214844 L 42.628906 14.421875 C 42.628906 12.507812 41.066406 10.945312 39.152344 10.945312 Z M 39.730469 43.214844 C 39.730469 43.53125 39.46875 43.792969 39.152344 43.792969 L 16.332031 43.792969 C 16.015625 43.792969 15.753906 43.53125 15.753906 43.214844 L 15.753906 14.421875 C 15.753906 14.105469 16.015625 13.84375 16.332031 13.84375 L 39.152344 13.84375 C 39.46875 13.84375 39.730469 14.105469 39.730469 14.421875 Z M 39.730469 43.214844 " fill-opacity="1" fill-rule="nonzero"/></g><g clip-path="url(#dfbf5884bb)"><path fill="#ffffff" d="M 30.539062 48.636719 L 11.722656 48.636719 C 11.375 48.636719 11.085938 48.347656 11.085938 48 L 11.085938 17.25 C 11.085938 16.453125 10.433594 15.800781 9.636719 15.800781 C 8.839844 15.800781 8.1875 16.453125 8.1875 17.25 L 8.1875 48 C 8.1875 49.957031 9.765625 51.535156 11.722656 51.535156 L 30.527344 51.535156 C 31.324219 51.535156 31.976562 50.882812 31.976562 50.085938 C 31.976562 49.289062 31.335938 48.636719 30.539062 48.636719 Z M 30.539062 48.636719 " fill-opacity="1" fill-rule="nonzero"/></g><path fill="#ffffff" d="M 35.570312 21.394531 L 20.636719 21.394531 C 19.839844 21.394531 19.1875 22.046875 19.1875 22.84375 C 19.1875 23.644531 19.839844 24.296875 20.636719 24.296875 L 35.570312 24.296875 C 36.367188 24.296875 37.019531 23.644531 37.019531 22.84375 C 37.019531 22.046875 36.382812 21.394531 35.570312 21.394531 Z M 35.570312 21.394531 " fill-opacity="1" fill-rule="nonzero"/><path fill="#ffffff" d="M 35.207031 27.367188 L 20.277344 27.367188 C 19.480469 27.367188 18.828125 28.019531 18.828125 28.820312 C 18.828125 29.617188 19.480469 30.269531 20.277344 30.269531 L 35.207031 30.269531 C 36.003906 30.269531 36.65625 29.617188 36.65625 28.820312 C 36.65625 28.019531 36.003906 27.367188 35.207031 27.367188 Z M 35.207031 27.367188 " fill-opacity="1" fill-rule="nonzero"/><path fill="#ffffff" d="M 34.832031 33.339844 L 19.898438 33.339844 C 19.101562 33.339844 18.449219 33.992188 18.449219 34.792969 C 18.449219 35.589844 19.101562 36.242188 19.898438 36.242188 L 34.832031 36.242188 C 35.628906 36.242188 36.28125 35.589844 36.28125 34.792969 C 36.28125 33.992188 35.628906 33.339844 34.832031 33.339844 Z M 34.832031 33.339844 " fill-opacity="1" fill-rule="nonzero"/></svg>