<svg xmlns="http://www.w3.org/2000/svg" xmlns:xlink="http://www.w3.org/1999/xlink" width="1336" zoomAndPan="magnify" viewBox="0 0 1002 301.499996" height="402" preserveAspectRatio="xMidYMid meet" version="1.0"><defs><clipPath id="413f53dc62"><path d="M 13.414062 55.535156 L 721.722656 55.535156 L 721.722656 207.398438 L 13.414062 207.398438 Z M 13.414062 55.535156 " clip-rule="nonzero"/></clipPath><clipPath id="16e51ad38a"><path d="M 22.402344 55.535156 L 712.289062 55.535156 C 714.671875 55.535156 716.957031 56.480469 718.640625 58.164062 C 720.328125 59.851562 721.273438 62.136719 721.273438 64.519531 L 721.273438 198.414062 C 721.273438 200.796875 720.328125 203.082031 718.640625 204.765625 C 716.957031 206.453125 714.671875 207.398438 712.289062 207.398438 L 22.402344 207.398438 C 20.019531 207.398438 17.734375 206.453125 16.046875 204.765625 C 14.363281 203.082031 13.414062 200.796875 13.414062 198.414062 L 13.414062 64.519531 C 13.414062 62.136719 14.363281 59.851562 16.046875 58.164062 C 17.734375 56.480469 20.019531 55.535156 22.402344 55.535156 Z M 22.402344 55.535156 " clip-rule="nonzero"/></clipPath><clipPath id="3f8b9ff310"><path d="M 0.414062 0.535156 L 708.316406 0.535156 L 708.316406 152.398438 L 0.414062 152.398438 Z M 0.414062 0.535156 " clip-rule="nonzero"/></clipPath><clipPath id="dcb93eb799"><path d="M 9.402344 0.535156 L 699.289062 0.535156 C 701.671875 0.535156 703.957031 1.480469 705.640625 3.164062 C 707.328125 4.851562 708.273438 7.136719 708.273438 9.519531 L 708.273438 143.414062 C 708.273438 145.796875 707.328125 148.082031 705.640625 149.765625 C 703.957031 151.453125 701.671875 152.398438 699.289062 152.398438 L 9.402344 152.398438 C 7.019531 152.398438 4.734375 151.453125 3.046875 149.765625 C 1.363281 148.082031 0.414062 145.796875 0.414062 143.414062 L 0.414062 9.519531 C 0.414062 7.136719 1.363281 4.851562 3.046875 3.164062 C 4.734375 1.480469 7.019531 0.535156 9.402344 0.535156 Z M 9.402344 0.535156 " clip-rule="nonzero"/></clipPath><clipPath id="35d5079e57"><rect x="0" width="709" y="0" height="153"/></clipPath><clipPath id="8bf703c9d6"><path d="M 13.414062 55.535156 L 721.769531 55.535156 L 721.769531 189.757812 L 13.414062 189.757812 Z M 13.414062 55.535156 " clip-rule="nonzero"/></clipPath><clipPath id="a94629dbd8"><path d="M 22.402344 55.535156 L 712.289062 55.535156 C 714.671875 55.535156 716.957031 56.480469 718.640625 58.164062 C 720.328125 59.851562 721.273438 62.136719 721.273438 64.519531 L 721.273438 180.773438 C 721.273438 183.15625 720.328125 185.441406 718.640625 187.128906 C 716.957031 188.8125 714.671875 189.757812 712.289062 189.757812 L 22.402344 189.757812 C 20.019531 189.757812 17.734375 188.8125 16.046875 187.128906 C 14.363281 185.441406 13.414062 183.15625 13.414062 180.773438 L 13.414062 64.519531 C 13.414062 62.136719 14.363281 59.851562 16.046875 58.164062 C 17.734375 56.480469 20.019531 55.535156 22.402344 55.535156 Z M 22.402344 55.535156 " clip-rule="nonzero"/></clipPath><clipPath id="f2fdad6cb2"><path d="M 0.414062 0.535156 L 708.316406 0.535156 L 708.316406 134.757812 L 0.414062 134.757812 Z M 0.414062 0.535156 " clip-rule="nonzero"/></clipPath><clipPath id="d5b6a4a91e"><path d="M 9.402344 0.535156 L 699.289062 0.535156 C 701.671875 0.535156 703.957031 1.480469 705.640625 3.164062 C 707.328125 4.851562 708.273438 7.136719 708.273438 9.519531 L 708.273438 125.773438 C 708.273438 128.15625 707.328125 130.441406 705.640625 132.128906 C 703.957031 133.8125 701.671875 134.757812 699.289062 134.757812 L 9.402344 134.757812 C 7.019531 134.757812 4.734375 133.8125 3.046875 132.128906 C 1.363281 130.441406 0.414062 128.15625 0.414062 125.773438 L 0.414062 9.519531 C 0.414062 7.136719 1.363281 4.851562 3.046875 3.164062 C 4.734375 1.480469 7.019531 0.535156 9.402344 0.535156 Z M 9.402344 0.535156 " clip-rule="nonzero"/></clipPath><clipPath id="2b03034662"><rect x="0" width="709" y="0" height="135"/></clipPath><clipPath id="b93d63fcdd"><path d="M 0.828125 55.535156 L 721.289062 55.535156 L 721.289062 172.121094 L 0.828125 172.121094 Z M 0.828125 55.535156 " clip-rule="nonzero"/></clipPath><clipPath id="1049333c09"><path d="M 9.816406 55.535156 L 712.289062 55.535156 C 714.671875 55.535156 716.957031 56.480469 718.640625 58.164062 C 720.328125 59.851562 721.273438 62.136719 721.273438 64.519531 L 721.273438 163.132812 C 721.273438 165.515625 720.328125 167.804688 718.640625 169.488281 C 716.957031 171.171875 714.671875 172.121094 712.289062 172.121094 L 9.816406 172.121094 C 7.429688 172.121094 5.144531 171.171875 3.460938 169.488281 C 1.777344 167.804688 0.828125 165.515625 0.828125 163.132812 L 0.828125 64.519531 C 0.828125 62.136719 1.777344 59.851562 3.460938 58.164062 C 5.144531 56.480469 7.429688 55.535156 9.816406 55.535156 Z M 9.816406 55.535156 " clip-rule="nonzero"/></clipPath><clipPath id="5ebd7c3a58"><path d="M 0.828125 0.535156 L 721.289062 0.535156 L 721.289062 117.121094 L 0.828125 117.121094 Z M 0.828125 0.535156 " clip-rule="nonzero"/></clipPath><clipPath id="f87a5d2dd7"><path d="M 9.816406 0.535156 L 712.289062 0.535156 C 714.671875 0.535156 716.957031 1.480469 718.640625 3.164062 C 720.328125 4.851562 721.273438 7.136719 721.273438 9.519531 L 721.273438 108.132812 C 721.273438 110.515625 720.328125 112.804688 718.640625 114.488281 C 716.957031 116.171875 714.671875 117.121094 712.289062 117.121094 L 9.816406 117.121094 C 7.429688 117.121094 5.144531 116.171875 3.460938 114.488281 C 1.777344 112.804688 0.828125 110.515625 0.828125 108.132812 L 0.828125 9.519531 C 0.828125 7.136719 1.777344 4.851562 3.460938 3.164062 C 5.144531 1.480469 7.429688 0.535156 9.816406 0.535156 Z M 9.816406 0.535156 " clip-rule="nonzero"/></clipPath><clipPath id="d0ddafaf4f"><rect x="0" width="722" y="0" height="118"/></clipPath><clipPath id="7877fc66bf"><path d="M 700.554688 0 L 1000.742188 0 L 1000.742188 301 L 700.554688 301 Z M 700.554688 0 " clip-rule="nonzero"/></clipPath><clipPath id="3df9f3e016"><path d="M 726.011719 0 L 975.285156 0 C 989.34375 0 1000.742188 11.398438 1000.742188 25.457031 L 1000.742188 275.132812 C 1000.742188 289.195312 989.34375 300.59375 975.285156 300.59375 L 726.011719 300.59375 C 711.949219 300.59375 700.554688 289.195312 700.554688 275.132812 L 700.554688 25.457031 C 700.554688 11.398438 711.949219 0 726.011719 0 Z M 726.011719 0 " clip-rule="nonzero"/></clipPath><clipPath id="ae0d9a56a5"><path d="M 0.554688 0 L 300.742188 0 L 300.742188 300.703125 L 0.554688 300.703125 Z M 0.554688 0 " clip-rule="nonzero"/></clipPath><clipPath id="dbe7f49c66"><path d="M 26.011719 0 L 275.285156 0 C 289.34375 0 300.742188 11.398438 300.742188 25.457031 L 300.742188 275.132812 C 300.742188 289.195312 289.34375 300.59375 275.285156 300.59375 L 26.011719 300.59375 C 11.949219 300.59375 0.554688 289.195312 0.554688 275.132812 L 0.554688 25.457031 C 0.554688 11.398438 11.949219 0 26.011719 0 Z M 26.011719 0 " clip-rule="nonzero"/></clipPath><clipPath id="3edafde54f"><rect x="0" width="301" y="0" height="301"/></clipPath></defs><g clip-path="url(#413f53dc62)"><g clip-path="url(#16e51ad38a)"><g transform="matrix(1, 0, 0, 1, 13, 55)"><g clip-path="url(#35d5079e57)"><g clip-path="url(#3f8b9ff310)"><g clip-path="url(#dcb93eb799)"><path fill="#d6ab9d" d="M 0.414062 0.535156 L 708.128906 0.535156 L 708.128906 152.398438 L 0.414062 152.398438 Z M 0.414062 0.535156 " fill-opacity="1" fill-rule="nonzero"/></g></g></g></g></g></g><g clip-path="url(#8bf703c9d6)"><g clip-path="url(#a94629dbd8)"><g transform="matrix(1, 0, 0, 1, 13, 55)"><g clip-path="url(#2b03034662)"><g clip-path="url(#f2fdad6cb2)"><g clip-path="url(#d5b6a4a91e)"><path fill="#fbf3d5" d="M 0.414062 0.535156 L 708.242188 0.535156 L 708.242188 134.757812 L 0.414062 134.757812 Z M 0.414062 0.535156 " fill-opacity="1" fill-rule="nonzero"/></g></g></g></g></g></g><g clip-path="url(#b93d63fcdd)"><g clip-path="url(#1049333c09)"><g transform="matrix(1, 0, 0, 1, 0.000000000000000111, 55)"><g clip-path="url(#d0ddafaf4f)"><g clip-path="url(#5ebd7c3a58)"><g clip-path="url(#f87a5d2dd7)"><path fill="#9baa9a" d="M 0.828125 0.535156 L 721.289062 0.535156 L 721.289062 117.121094 L 0.828125 117.121094 Z M 0.828125 0.535156 " fill-opacity="1" fill-rule="nonzero"/></g></g></g></g></g></g><g clip-path="url(#7877fc66bf)"><g clip-path="url(#3df9f3e016)"><g transform="matrix(1, 0, 0, 1, 700, 0)"><g clip-path="url(#3edafde54f)"><g clip-path="url(#ae0d9a56a5)"><g clip-path="url(#dbe7f49c66)"><path fill="#5f6b68" d="M 0.554688 0 L 300.742188 0 L 300.742188 300.1875 L 0.554688 300.1875 Z M 0.554688 0 " fill-opacity="1" fill-rule="nonzero"/></g></g></g></g></g></g></svg>